# xmcd CD database file
#
# Track frame offsets:
#	150
#	16340
#	42260
#	59952
#	76162
#	96180
#	114790
#	131505
#	158232
#	168335
#	179277
#	194642
#
# Disc length: 2741 seconds
#
# Revision: 0
# Processed by: cddbd v1.5.1PL0 Copyright (c) Steve Scherf et al.
# Submitted via: CDex 1.51
#
DISCID=9b0ab30c
DTITLE=the pillows - My Room Is Delicious Vol.1
DYEAR=2002
DGENRE=Rock
TTITLE0=The Fragments - Delicious and Vacant
TTITLE1=The Fragments - Dub Phantom
TTITLE2=Pleiades - ボイド
TTITLE3=Pleiades - ないしょの話
TTITLE4=The Hermit - Call Bell
TTITLE5=The Hermit - Well, Loud
TTITLE6=Rom - アヴェ・マリア
TTITLE7=Rom - 月の光
TTITLE8=Yoko - Permanent
TTITLE9=Yoko - 4track Horn
TTITLE10=Yamanaka Sawao - Wrong Vacation
TTITLE11=Yamanaka Sawao - Birthday
EXTD=YEAR: 2002
EXTT0=
EXTT1=
EXTT2=
EXTT3=
EXTT4=
EXTT5=
EXTT6=
EXTT7=
EXTT8=
EXTT9=
EXTT10=
EXTT11=
PLAYORDER=
